
<svg width="200" height="60" viewBox="0 0 200 60" fill="none" xmlns="http://www.w3.org/2000/svg">
  <rect width="200" height="60" rx="4" fill="#F3F4F6"/>
  <path d="M54.92 23.6H57.84V37H54.92V23.6ZM59.6475 37V25.24H62.5675V37H59.6475ZM61.1075 23.54C60.5875 23.54 60.1475 23.38 59.7875 23.06C59.4275 22.72 59.2475 22.3 59.2475 21.8C59.2475 21.3 59.4275 20.88 59.7875 20.54C60.1475 20.2 60.5875 20.04 61.1075 20.04C61.6275 20.04 62.0675 20.2 62.4275 20.52C62.7875 20.84 62.9675 21.26 62.9675 21.78C62.9675 22.3 62.7875 22.74 62.4275 23.1C62.0675 23.46 61.6275 23.64 61.1075 23.64V23.54ZM68.8525 25.24L68.9325 27.02C69.3125 26.42 69.8125 25.94 70.4325 25.58C71.0525 25.22 71.7725 25.04 72.5925 25.04C73.3525 25.04 74.0325 25.2 74.6325 25.52C75.2325 25.84 75.7125 26.34 76.0725 27.02C76.4525 26.38 76.9725 25.88 77.6325 25.52C78.2925 25.16 79.0325 24.98 79.8525 24.98C80.8125 24.98 81.6525 25.2 82.3725 25.64C83.0925 26.08 83.6325 26.7 83.9925 27.5C84.3525 28.3 84.5325 29.26 84.5325 30.38V37H81.6125V30.38C81.6125 29.42 81.3925 28.7 80.9525 28.22C80.5125 27.74 79.9325 27.5 79.2125 27.5C78.4325 27.5 77.8125 27.74 77.3525 28.22C76.8925 28.7 76.6525 29.4 76.6325 30.32L76.6125 37H73.6925V30.46C73.6925 29.5 73.4725 28.78 73.0325 28.3C72.5925 27.82 72.0125 27.58 71.2925 27.58C70.7525 27.58 70.2725 27.72 69.8525 28C69.4325 28.26 69.0925 28.64 68.8325 29.14C68.5725 29.64 68.4425 30.22 68.4425 30.88V37H65.5225V25.24H68.8525ZM98.1425 37.24C96.7025 37.24 95.3825 36.94 94.1825 36.34C92.9825 35.74 92.0225 34.92 91.3025 33.88C90.5825 32.84 90.2225 31.66 90.2225 30.34C90.2225 29 90.5825 27.8 91.3025 26.74C92.0225 25.68 92.9825 24.84 94.1825 24.24C95.3825 23.64 96.7025 23.34 98.1425 23.34C99.5825 23.34 100.903 23.64 102.103 24.24C103.302 24.84 104.263 25.66 104.983 26.7C105.702 27.74 106.063 28.96 106.063 30.36C106.063 31.76 105.702 32.98 104.983 34.02C104.263 35.06 103.302 35.88 102.103 36.48C100.903 37.08 99.5825 37.38 98.1425 37.38V37.24ZM98.1425 34.5C98.9625 34.5 99.7025 34.32 100.363 33.96C101.023 33.6 101.542 33.08 101.922 32.4C102.303 31.72 102.483 31.02 102.483 30.3C102.483 29.58 102.303 28.88 101.922 28.2C101.542 27.52 101.023 27 100.363 26.64C99.7025 26.28 98.9825 26.1 98.2025 26.1C97.4225 26.1 96.7025 26.28 96.0425 26.64C95.3825 27 94.8625 27.52 94.4825 28.2C94.1025 28.88 93.9225 29.58 93.9225 30.3C93.9225 31.02 94.1025 31.72 94.4825 32.4C94.8625 33.08 95.3825 33.6 96.0425 33.96C96.7025 34.32 97.4025 34.5 98.1425 34.5ZM108.184 37V25.24H111.104V37H108.184ZM109.644 23.54C109.124 23.54 108.684 23.38 108.324 23.06C107.964 22.72 107.784 22.3 107.784 21.8C107.784 21.3 107.964 20.88 108.324 20.54C108.684 20.2 109.124 20.04 109.644 20.04C110.164 20.04 110.604 20.2 110.964 20.52C111.324 20.84 111.504 21.26 111.504 21.78C111.504 22.3 111.324 22.74 110.964 23.1C110.604 23.46 110.164 23.64 109.644 23.64V23.54ZM119.03 28.88L117.69 28.98C116.97 29 116.39 29.2 115.95 29.58C115.51 29.96 115.23 30.46 115.13 31.08V37H112.21V25.24H115V27.4C115.06 27.32 115.23 27.06 115.51 26.64C115.79 26.22 116.17 25.84 116.63 25.5C117.11 25.16 117.67 24.98 118.33 24.98C118.49 24.98 118.65 24.98 118.81 25C118.97 25.02 119.09 25.04 119.15 25.06L119.03 28.88ZM127.599 37.24C126.399 37.24 125.319 36.98 124.359 36.46C123.399 35.94 122.639 35.22 122.079 34.3C121.519 33.38 121.239 32.32 121.239 31.12C121.239 29.92 121.519 28.86 122.079 27.94C122.639 27.02 123.399 26.3 124.359 25.78C125.319 25.26 126.399 25 127.599 25C128.799 25 129.879 25.26 130.839 25.78C131.799 26.3 132.559 27.02 133.119 27.94C133.679 28.86 133.959 29.92 133.959 31.12C133.959 32.32 133.679 33.38 133.119 34.3C132.559 35.22 131.799 35.94 130.839 36.46C129.879 36.98 128.799 37.24 127.599 37.24ZM127.599 34.74C128.619 34.74 129.459 34.4 130.119 33.72C130.779 33.04 131.119 32.18 131.119 31.12C131.119 30.06 130.779 29.2 130.119 28.52C129.459 27.84 128.619 27.5 127.599 27.5C126.579 27.5 125.739 27.84 125.079 28.52C124.419 29.2 124.099 30.06 124.099 31.12C124.099 32.18 124.419 33.04 125.079 33.72C125.739 34.4 126.599 34.74 127.599 34.74ZM142.574 25.24L142.654 27.2C143.034 26.48 143.594 25.92 144.334 25.52C145.074 25.12 145.894 24.92 146.794 24.92C148.154 24.92 149.214 25.36 149.974 26.24C150.734 27.12 151.114 28.38 151.114 30.02V37H148.194V30.14C148.194 29.14 147.954 28.38 147.474 27.86C146.994 27.34 146.294 27.08 145.374 27.08C144.654 27.08 144.034 27.24 143.514 27.56C142.994 27.88 142.594 28.32 142.314 28.88C142.054 29.44 141.914 30.1 141.914 30.86V37H138.994V25.24H142.574Z" fill="#7C3AED"/>
</svg>
