
<svg width="200" height="60" viewBox="0 0 200 60" fill="none" xmlns="http://www.w3.org/2000/svg">
  <rect width="200" height="60" rx="4" fill="#F3F4F6"/>
  <path d="M49.42 37V24.2H52.34V34.34H58.98V37H49.42ZM60.46 37V25.24H63.38V37H60.46ZM61.92 23.54C61.4 23.54 60.96 23.38 60.6 23.06C60.24 22.72 60.06 22.3 60.06 21.8C60.06 21.3 60.24 20.88 60.6 20.54C60.96 20.2 61.4 20.04 61.92 20.04C62.44 20.04 62.88 20.2 63.24 20.52C63.6 20.84 63.78 21.26 63.78 21.78C63.78 22.3 63.6 22.74 63.24 23.1C62.88 23.46 62.44 23.64 61.92 23.64V23.54ZM71.98 37.24C70.78 37.24 69.7 36.98 68.74 36.46C67.78 35.94 67.02 35.22 66.46 34.3C65.9 33.38 65.62 32.32 65.62 31.12C65.62 29.92 65.9 28.86 66.46 27.94C67.02 27.02 67.78 26.3 68.74 25.78C69.7 25.26 70.78 25 71.98 25C73.18 25 74.26 25.26 75.22 25.78C76.18 26.3 76.94 27.02 77.5 27.94C78.06 28.86 78.34 29.92 78.34 31.12C78.34 32.32 78.06 33.38 77.5 34.3C76.94 35.22 76.18 35.94 75.22 36.46C74.26 36.98 73.18 37.24 71.98 37.24ZM71.98 34.74C73 34.74 73.84 34.4 74.5 33.72C75.16 33.04 75.5 32.18 75.5 31.12C75.5 30.06 75.16 29.2 74.5 28.52C73.84 27.84 73 27.5 71.98 27.5C70.96 27.5 70.12 27.84 69.46 28.52C68.8 29.2 68.48 30.06 68.48 31.12C68.48 32.18 68.8 33.04 69.46 33.72C70.12 34.4 70.98 34.74 71.98 34.74ZM79.8975 37V25.24H83.4775L83.5575 27.02C83.9975 26.42 84.5575 25.94 85.2375 25.58C85.9175 25.22 86.7175 25.04 87.6375 25.04C88.9975 25.04 90.0575 25.48 90.8175 26.36C91.5775 27.24 91.9575 28.5 91.9575 30.14V37H89.0375V30.32C89.0375 29.32 88.7975 28.56 88.3175 28.04C87.8375 27.52 87.1975 27.26 86.3975 27.26C85.6775 27.26 85.0575 27.42 84.5375 27.74C84.0175 28.06 83.6175 28.5 83.3375 29.06C83.0575 29.62 82.9175 30.28 82.9175 31.04V37H79.9975H79.8975ZM93.7378 37V25.24H97.3178L97.3978 27.02C97.8378 26.42 98.3978 25.94 99.0778 25.58C99.7578 25.22 100.558 25.04 101.478 25.04C102.838 25.04 103.898 25.48 104.658 26.36C105.418 27.24 105.798 28.5 105.798 30.14V37H102.878V30.32C102.878 29.32 102.638 28.56 102.158 28.04C101.678 27.52 101.038 27.26 100.238 27.26C99.5178 27.26 98.8978 27.42 98.3778 27.74C97.8578 28.06 97.4578 28.5 97.1778 29.06C96.8978 29.62 96.7578 30.28 96.7578 31.04V37H93.8378H93.7378ZM116.956 37V30.74C116.956 29.66 116.716 28.82 116.236 28.22C115.756 27.62 115.096 27.32 114.256 27.32C113.696 27.32 113.196 27.46 112.756 27.74C112.316 28.02 111.976 28.4 111.736 28.88C111.496 29.36 111.376 29.92 111.376 30.56V37H108.456V20.56H111.376V27.14C111.736 26.52 112.256 26.04 112.936 25.72C113.616 25.4 114.376 25.24 115.216 25.24C116.256 25.24 117.156 25.46 117.916 25.9C118.676 26.34 119.256 26.98 119.656 27.82C120.056 28.66 120.256 29.66 120.256 30.82V37H117.336V37.04L116.956 37ZM122.495 37V25.24H125.415V37H122.495ZM123.955 23.54C123.435 23.54 122.995 23.38 122.635 23.06C122.275 22.72 122.095 22.3 122.095 21.8C122.095 21.3 122.275 20.88 122.635 20.54C122.995 20.2 123.435 20.04 123.955 20.04C124.475 20.04 124.915 20.2 125.275 20.52C125.635 20.84 125.815 21.26 125.815 21.78C125.815 22.3 125.635 22.74 125.275 23.1C124.915 23.46 124.475 23.64 123.955 23.64V23.54ZM134.481 37.24C133.281 37.24 132.201 36.98 131.241 36.46C130.281 35.94 129.521 35.22 128.961 34.3C128.401 33.38 128.121 32.32 128.121 31.12C128.121 29.92 128.401 28.86 128.961 27.94C129.521 27.02 130.281 26.3 131.241 25.78C132.201 25.26 133.281 25 134.481 25C135.681 25 136.761 25.26 137.721 25.78C138.681 26.3 139.441 27.02 140.001 27.94C140.561 28.86 140.841 29.92 140.841 31.12C140.841 32.32 140.561 33.38 140.001 34.3C139.441 35.22 138.681 35.94 137.721 36.46C136.761 36.98 135.681 37.24 134.481 37.24ZM134.481 34.74C135.501 34.74 136.341 34.4 137.001 33.72C137.661 33.04 138.001 32.18 138.001 31.12C138.001 30.06 137.661 29.2 137.001 28.52C136.341 27.84 135.501 27.5 134.481 27.5C133.461 27.5 132.621 27.84 131.961 28.52C131.301 29.2 130.981 30.06 130.981 31.12C130.981 32.18 131.301 33.04 131.961 33.72C132.621 34.4 133.481 34.74 134.481 34.74ZM149.936 37.24C148.776 37.24 147.736 36.98 146.816 36.46C145.896 35.94 145.176 35.22 144.636 34.3C144.096 33.38 143.836 32.32 143.836 31.12C143.836 29.92 144.096 28.86 144.636 27.94C145.156 27.02 145.876 26.3 146.776 25.78C147.676 25.26 148.716 25 149.876 25C150.776 25 151.576 25.16 152.276 25.48C152.976 25.8 153.556 26.22 154.016 26.74C154.476 27.26 154.756 27.82 154.856 28.42H151.996C151.836 27.94 151.536 27.56 151.116 27.28C150.696 27 150.176 26.86 149.576 26.86C148.696 26.86 147.976 27.18 147.416 27.82C146.856 28.46 146.576 29.36 146.576 30.52C146.576 31.68 146.856 32.58 147.416 33.22C147.976 33.86 148.696 34.18 149.576 34.18C150.156 34.18 150.676 34.06 151.116 33.82C151.556 33.58 151.856 33.22 152.016 32.74H154.876C154.756 33.34 154.496 33.9 154.056 34.42C153.616 34.94 153.036 35.36 152.316 35.68C151.596 36 150.796 36.16 149.896 36.16L149.936 37.24Z" fill="#8B5CF6"/>
</svg>
