
<svg width="200" height="60" viewBox="0 0 200 60" fill="none" xmlns="http://www.w3.org/2000/svg">
  <rect width="200" height="60" rx="4" fill="#F3F4F6"/>
  <path d="M38.32 37V24.2H49.28V26.68H41.28V29.32H48.4V31.8H41.28V34.52H49.44V37H38.32ZM58.8167 37.24C57.5767 37.24 56.4567 36.98 55.4567 36.46C54.4567 35.94 53.6567 35.22 53.0567 34.3C52.4567 33.38 52.1567 32.32 52.1567 31.12C52.1567 29.92 52.4567 28.86 53.0567 27.94C53.6567 27.02 54.4567 26.3 55.4567 25.78C56.4567 25.26 57.5767 25 58.8167 25C60.0567 25 61.1767 25.26 62.1767 25.78C63.1767 26.3 63.9767 27.02 64.5767 27.94C65.1767 28.86 65.4767 29.92 65.4767 31.12C65.4767 32.32 65.1767 33.38 64.5767 34.3C63.9767 35.22 63.1767 35.94 62.1767 36.46C61.1767 36.98 60.0567 37.24 58.8167 37.24ZM58.8167 34.76C59.8967 34.76 60.7767 34.42 61.4567 33.74C62.1367 33.06 62.4767 32.2 62.4767 31.16C62.4767 30.1 62.1367 29.24 61.4567 28.58C60.7767 27.9 59.8967 27.56 58.8167 27.56C57.7367 27.56 56.8567 27.9 56.1767 28.58C55.4967 29.24 55.1567 30.1 55.1567 31.16C55.1567 32.2 55.4967 33.06 56.1767 33.74C56.8567 34.42 57.7367 34.76 58.8167 34.76Z" fill="#9333EA"/>
  <path d="M77.9567 37L73.0767 25.24H76.2367L79.5967 33.98L83.0367 25.24H86.0367L81.1567 37H77.9567ZM103.773 37V31.34H96.8934V37H93.9734V25.24H96.8934V28.86H103.773V25.24H106.693V37H103.773ZM118.694 37.24C117.294 37.24 116.034 36.98 114.914 36.46C113.794 35.92 112.914 35.2 112.274 34.28C111.654 33.36 111.334 32.32 111.314 31.16H114.414C114.454 32.16 114.814 32.96 115.494 33.56C116.194 34.16 117.254 34.46 118.674 34.46C119.914 34.46 120.854 34.22 121.494 33.74C122.134 33.26 122.454 32.64 122.454 31.88C122.454 31.32 122.274 30.86 121.914 30.5C121.554 30.14 121.114 29.86 120.594 29.66C120.074 29.46 119.294 29.24 118.254 29C116.934 28.68 115.894 28.36 115.134 28.04C114.374 27.72 113.734 27.24 113.214 26.6C112.694 25.96 112.434 25.12 112.434 24.08C112.434 23.16 112.674 22.34 113.154 21.62C113.654 20.9 114.354 20.34 115.254 19.94C116.174 19.54 117.234 19.34 118.434 19.34C120.274 19.34 121.754 19.82 122.874 20.78C123.994 21.74 124.594 23.02 124.674 24.62H121.494C121.454 23.78 121.134 23.1 120.534 22.58C119.954 22.06 119.114 21.8 118.014 21.8C116.994 21.8 116.214 22.02 115.674 22.46C115.134 22.9 114.874 23.48 114.874 24.2C114.874 24.72 115.034 25.16 115.354 25.52C115.694 25.86 116.114 26.14 116.614 26.34C117.134 26.52 117.894 26.74 118.894 27C120.214 27.32 121.254 27.64 122.014 27.96C122.774 28.28 123.414 28.76 123.934 29.4C124.454 30.04 124.714 30.9 124.714 31.98C124.714 32.82 124.474 33.62 123.994 34.38C123.514 35.14 122.814 35.74 121.894 36.18C120.974 36.62 119.894 36.84 118.654 36.84L118.694 37.24Z" fill="#6D28D9"/>
  <path d="M125.975 37V24.2H128.895V37H125.975ZM143.632 37L138.752 25.24H141.912L145.272 33.98L148.712 25.24H151.712L146.832 37H143.632ZM160.289 37.24C158.889 37.24 157.629 36.98 156.509 36.46C155.389 35.92 154.509 35.2 153.869 34.28C153.249 33.36 152.929 32.32 152.909 31.16H156.009C156.049 32.16 156.409 32.96 157.089 33.56C157.789 34.16 158.849 34.46 160.269 34.46C161.509 34.46 162.449 34.22 163.089 33.74C163.729 33.26 164.049 32.64 164.049 31.88C164.049 31.32 163.869 30.86 163.509 30.5C163.149 30.14 162.709 29.86 162.189 29.66C161.669 29.46 160.889 29.24 159.849 29C158.529 28.68 157.489 28.36 156.729 28.04C155.969 27.72 155.329 27.24 154.809 26.6C154.289 25.96 154.029 25.12 154.029 24.08C154.029 23.16 154.269 22.34 154.749 21.62C155.249 20.9 155.949 20.34 156.849 19.94C157.769 19.54 158.829 19.34 160.029 19.34C161.869 19.34 163.349 19.82 164.469 20.78C165.589 21.74 166.189 23.02 166.269 24.62H163.089C163.049 23.78 162.729 23.1 162.129 22.58C161.549 22.06 160.709 21.8 159.609 21.8C158.589 21.8 157.809 22.02 157.269 22.46C156.729 22.9 156.469 23.48 156.469 24.2C156.469 24.72 156.629 25.16 156.949 25.52C157.289 25.86 157.709 26.14 158.209 26.34C158.729 26.52 159.489 26.74 160.489 27C161.809 27.32 162.849 27.64 163.609 27.96C164.369 28.28 165.009 28.76 165.529 29.4C166.049 30.04 166.309 30.9 166.309 31.98C166.309 32.82 166.069 33.62 165.589 34.38C165.109 35.14 164.409 35.74 163.489 36.18C162.569 36.62 161.489 36.84 160.249 36.84L160.289 37.24Z" fill="#7E22CE"/>
</svg>
