
<svg width="200" height="60" viewBox="0 0 200 60" fill="none" xmlns="http://www.w3.org/2000/svg">
  <rect width="200" height="60" rx="4" fill="#F3F4F6"/>
  <path d="M57.3 37.24C56.06 37.24 54.88 37.02 53.78 36.58C52.68 36.14 51.74 35.52 50.96 34.72C50.18 33.92 49.6 32.96 49.22 31.86L51.88 30.68C52.36 31.92 53.02 32.86 53.86 33.5C54.7 34.14 55.86 34.46 57.34 34.46C58.5 34.46 59.4 34.24 60.04 33.8C60.68 33.36 61 32.76 61 32C61 31.4 60.82 30.92 60.46 30.56C60.1 30.2 59.62 29.92 59.02 29.72C58.42 29.52 57.56 29.3 56.44 29.06C55.12 28.78 54.04 28.44 53.2 28.04C52.36 27.64 51.72 27.1 51.28 26.44C50.84 25.78 50.62 24.92 50.62 23.86C50.62 22.86 50.88 21.98 51.4 21.2C51.92 20.42 52.68 19.8 53.68 19.34C54.68 18.88 55.86 18.66 57.22 18.66C58.6 18.66 59.82 18.92 60.88 19.44C61.94 19.96 62.8 20.74 63.46 21.78L60.96 23.18C60.5 22.44 59.94 21.9 59.28 21.54C58.62 21.18 57.82 21 56.88 21C55.88 21 55.08 21.2 54.46 21.6C53.84 22 53.54 22.56 53.54 23.28C53.54 23.82 53.7 24.28 54.02 24.64C54.34 25 54.78 25.28 55.34 25.46C55.9 25.64 56.7 25.84 57.74 26.06C59.14 26.34 60.28 26.7 61.16 27.14C62.04 27.58 62.7 28.14 63.16 28.82C63.62 29.5 63.84 30.38 63.84 31.46C63.84 32.42 63.58 33.28 63.06 34.04C62.54 34.8 61.76 35.4 60.72 35.84C59.68 36.28 58.44 36.5 57 36.5L57.3 37.24ZM72.9025 37.24C71.7825 37.24 70.7825 36.98 69.9025 36.46C69.0225 35.94 68.3425 35.22 67.8625 34.3C67.3825 33.38 67.1425 32.32 67.1425 31.12C67.1425 29.92 67.3825 28.86 67.8625 27.94C68.3425 27.02 69.0425 26.3 69.9625 25.78C70.8825 25.26 71.9225 25 73.0825 25C74.6425 25 75.9225 25.42 76.9225 26.26C77.9225 27.1 78.5025 28.28 78.6625 29.8H75.8025C75.7025 29 75.4025 28.36 74.9025 27.88C74.4025 27.4 73.7425 27.16 72.9225 27.16C71.9625 27.16 71.1825 27.5 70.5825 28.18C69.9825 28.86 69.6825 29.84 69.6825 31.12C69.6825 32.4 69.9825 33.38 70.5825 34.06C71.1825 34.74 71.9625 35.08 72.9225 35.08C73.7425 35.08 74.4025 34.84 74.9025 34.36C75.4025 33.88 75.7025 33.24 75.8025 32.44H78.6625C78.5025 33.92 77.9025 35.08 76.8625 35.92C75.8225 36.76 74.5025 37.18 72.9025 37.18V37.24ZM80.795 37V20.56H83.695V27.34C84.095 26.58 84.635 25.98 85.315 25.54C85.995 25.1 86.775 24.88 87.655 24.88C89.055 24.88 90.155 25.3 90.955 26.14C91.755 26.98 92.155 28.26 92.155 29.98V37H89.255V30.2C89.255 29.16 89.015 28.38 88.535 27.86C88.055 27.34 87.375 27.08 86.495 27.08C85.615 27.08 84.895 27.34 84.355 27.86C83.815 28.38 83.535 29.16 83.535 30.2V37H80.635H80.795ZM100.743 37.24C99.543 37.24 98.463 36.98 97.503 36.46C96.543 35.94 95.783 35.22 95.223 34.3C94.663 33.38 94.383 32.32 94.383 31.12C94.383 29.92 94.663 28.86 95.223 27.94C95.783 27.02 96.543 26.3 97.503 25.78C98.463 25.26 99.543 25 100.743 25C101.943 25 103.023 25.26 103.983 25.78C104.943 26.3 105.703 27.02 106.263 27.94C106.823 28.86 107.103 29.92 107.103 31.12C107.103 32.32 106.823 33.38 106.263 34.3C105.703 35.22 104.943 35.94 103.983 36.46C103.023 36.98 101.943 37.24 100.743 37.24ZM100.743 34.74C101.763 34.74 102.603 34.4 103.263 33.72C103.923 33.04 104.263 32.18 104.263 31.12C104.263 30.06 103.923 29.2 103.263 28.52C102.603 27.84 101.763 27.5 100.743 27.5C99.723 27.5 98.883 27.84 98.223 28.52C97.563 29.2 97.243 30.06 97.243 31.12C97.243 32.18 97.563 33.04 98.223 33.72C98.883 34.4 99.743 34.74 100.743 34.74ZM114.912 37.24C114.072 37.24 113.352 37.1 112.752 36.82C112.152 36.54 111.692 36.14 111.372 35.62C111.052 35.1 110.892 34.48 110.892 33.76C110.892 32.94 111.092 32.28 111.492 31.78C111.892 31.28 112.492 30.9 113.292 30.64C114.092 30.38 115.112 30.26 116.352 30.26H118.792V29.94C118.792 29.24 118.612 28.72 118.252 28.38C117.892 28.04 117.352 27.86 116.632 27.86C115.992 27.86 115.452 28 115.012 28.28C114.572 28.56 114.312 28.96 114.232 29.48H111.352C111.412 28.56 111.692 27.78 112.192 27.14C112.692 26.5 113.332 26.02 114.112 25.7C114.892 25.38 115.752 25.22 116.692 25.22C118.332 25.22 119.652 25.64 120.652 26.48C121.652 27.32 122.152 28.5 122.152 30.04V37H119.412L119.112 35.4C118.792 35.92 118.332 36.34 117.732 36.66C117.132 36.98 116.432 37.14 115.632 37.14L114.912 37.24ZM116.012 34.58C116.872 34.58 117.552 34.32 118.052 33.8C118.552 33.28 118.832 32.64 118.892 31.88H116.812C116.012 31.88 115.452 32 115.132 32.24C114.812 32.48 114.652 32.8 114.652 33.2C114.652 33.6 114.812 33.92 115.132 34.14C115.452 34.36 115.872 34.48 116.392 34.48L116.012 34.58ZM124.66 37V25.24H128.24L128.32 27.02C128.76 26.42 129.32 25.94 130 25.58C130.68 25.22 131.48 25.04 132.4 25.04C133.76 25.04 134.82 25.48 135.58 26.36C136.34 27.24 136.72 28.5 136.72 30.14V37H133.8V30.32C133.8 29.32 133.56 28.56 133.08 28.04C132.6 27.52 131.96 27.26 131.16 27.26C130.44 27.26 129.82 27.42 129.3 27.74C128.78 28.06 128.38 28.5 128.1 29.06C127.82 29.62 127.68 30.28 127.68 31.04V37H124.76H124.66ZM146.227 37.24C145.067 37.24 144.027 36.98 143.107 36.46C142.187 35.94 141.467 35.22 140.927 34.3C140.387 33.38 140.127 32.32 140.127 31.12C140.127 29.92 140.387 28.86 140.927 27.94C141.467 27.02 142.187 26.3 143.087 25.78C143.987 25.26 145.007 25 146.147 25C147.047 25 147.867 25.16 148.587 25.48C149.307 25.8 149.907 26.22 150.387 26.76C150.867 27.3 151.167 27.88 151.287 28.52H148.427C148.267 28.04 147.987 27.66 147.547 27.38C147.107 27.1 146.587 26.96 145.987 26.96C145.107 26.96 144.387 27.28 143.827 27.92C143.267 28.56 142.987 29.48 142.987 30.68C142.987 31.88 143.267 32.8 143.827 33.44C144.387 34.08 145.107 34.4 145.987 34.4C146.567 34.4 147.067 34.28 147.507 34.04C147.947 33.8 148.227 33.44 148.387 32.96H151.247C151.127 33.6 150.847 34.18 150.387 34.7C149.927 35.22 149.327 35.64 148.587 35.96C147.847 36.28 147.047 36.44 146.147 36.44L146.227 37.24Z" fill="#9F7AEA"/>
</svg>
