
<svg width="200" height="60" viewBox="0 0 200 60" fill="none" xmlns="http://www.w3.org/2000/svg">
  <rect width="200" height="60" rx="4" fill="#F3F4F6"/>
  <path d="M28.58 37V24.2H36.64C37.8 24.2 38.76 24.38 39.54 24.74C40.32 25.1 40.9 25.62 41.28 26.3C41.66 26.98 41.84 27.74 41.84 28.58C41.84 29.46 41.66 30.24 41.3 30.9C40.94 31.56 40.4 32.08 39.66 32.44C38.92 32.8 38.02 32.98 36.94 32.98H30.18V30.52H36.44C37.1 30.52 37.64 30.42 38.06 30.22C38.48 30.02 38.8 29.74 39.02 29.38C39.24 29.02 39.34 28.6 39.34 28.12C39.34 27.64 39.24 27.22 39.02 26.86C38.8 26.5 38.5 26.22 38.08 26.02C37.66 25.82 37.14 25.72 36.5 25.72H31.5V37H28.58ZM51.0459 37.24C49.9659 37.24 49.0059 37.04 48.1659 36.64C47.3259 36.24 46.6659 35.68 46.1859 34.96C45.7059 34.24 45.4659 33.4 45.4659 32.44V30.58H42.7259V28.38H45.4659V24.78H48.3859V28.38H54.1259V30.58H48.3859V32.44C48.3859 33.12 48.5659 33.66 48.9259 34.08C49.2859 34.5 49.7859 34.72 50.4259 34.72C50.8059 34.72 51.1859 34.64 51.5659 34.48C51.9459 34.32 52.2659 34.06 52.5259 33.7L53.8659 35.82C53.4259 36.28 52.8659 36.64 52.1859 36.9C51.5059 37.16 50.7859 37.28 50.0259 37.28L51.0459 37.24ZM55.2559 37V24.2H64.3759V26.62H58.1759V29.4H63.5559V31.82H58.1759V37H55.2559ZM66.1522 37V25.24H69.7322L69.8122 27.02C70.2522 26.42 70.8122 25.94 71.4922 25.58C72.1722 25.22 72.9722 25.04 73.8922 25.04C75.2522 25.04 76.3122 25.48 77.0722 26.36C77.8322 27.24 78.2122 28.5 78.2122 30.14V37H75.2922V30.32C75.2922 29.32 75.0522 28.56 74.5722 28.04C74.0922 27.52 73.4522 27.26 72.6522 27.26C71.9322 27.26 71.3122 27.42 70.7922 27.74C70.2722 28.06 69.8722 28.5 69.5922 29.06C69.3122 29.62 69.1722 30.28 69.1722 31.04V37H66.2522H66.1522ZM80.6922 37V25.24H84.2722L84.3522 27.02C84.7922 26.42 85.3522 25.94 86.0322 25.58C86.7122 25.22 87.5122 25.04 88.4322 25.04C89.7922 25.04 90.8522 25.48 91.6122 26.36C92.3722 27.24 92.7522 28.5 92.7522 30.14V37H89.8322V30.32C89.8322 29.32 89.5922 28.56 89.1122 28.04C88.6322 27.52 87.9922 27.26 87.1922 27.26C86.4722 27.26 85.8522 27.42 85.3322 27.74C84.8122 28.06 84.4122 28.5 84.1322 29.06C83.8522 29.62 83.7122 30.28 83.7122 31.04V37H80.7922H80.6922ZM102.15 37.24C100.99 37.24 99.9502 36.98 99.0302 36.46C98.1102 35.94 97.3902 35.22 96.8502 34.3C96.3102 33.38 96.0302 32.32 96.0302 31.12C96.0302 29.92 96.3102 28.86 96.8502 27.94C97.3902 27.02 98.1102 26.3 99.0302 25.78C99.9302 25.26 100.97 25 102.15 25C103.09 25 103.91 25.16 104.61 25.48C105.31 25.8 105.89 26.22 106.35 26.74C106.81 27.26 107.09 27.82 107.19 28.42H104.33C104.17 27.94 103.87 27.56 103.45 27.28C103.03 27 102.51 26.86 101.91 26.86C101.03 26.86 100.31 27.18 99.7502 27.82C99.1902 28.46 98.9102 29.36 98.9102 30.52C98.9102 31.68 99.1902 32.58 99.7502 33.22C100.31 33.86 101.03 34.18 101.91 34.18C102.49 34.18 103.01 34.06 103.45 33.82C103.89 33.58 104.19 33.22 104.35 32.74H107.21C107.09 33.34 106.83 33.9 106.39 34.42C105.95 34.94 105.37 35.36 104.65 35.68C103.93 36 103.09 36.16 102.19 36.16L102.15 37.24ZM112.948 37.24C111.748 37.24 110.668 36.98 109.708 36.46C108.748 35.94 107.988 35.22 107.428 34.3C106.868 33.38 106.588 32.32 106.588 31.12C106.588 29.92 106.868 28.86 107.428 27.94C107.988 27.02 108.748 26.3 109.708 25.78C110.668 25.26 111.748 25 112.948 25C114.148 25 115.228 25.26 116.188 25.78C117.148 26.3 117.908 27.02 118.468 27.94C119.028 28.86 119.308 29.92 119.308 31.12C119.308 32.32 119.028 33.38 118.468 34.3C117.908 35.22 117.148 35.94 116.188 36.46C115.228 36.98 114.148 37.24 112.948 37.24ZM112.948 34.74C113.968 34.74 114.808 34.4 115.468 33.72C116.128 33.04 116.468 32.18 116.468 31.12C116.468 30.06 116.128 29.2 115.468 28.52C114.808 27.84 113.968 27.5 112.948 27.5C111.928 27.5 111.088 27.84 110.428 28.52C109.768 29.2 109.448 30.06 109.448 31.12C109.448 32.18 109.768 33.04 110.428 33.72C111.088 34.4 111.948 34.74 112.948 34.74ZM121.884 37V25.24H125.464L125.544 27.02C125.984 26.42 126.544 25.94 127.224 25.58C127.904 25.22 128.704 25.04 129.624 25.04C130.984 25.04 132.044 25.48 132.804 26.36C133.564 27.24 133.944 28.5 133.944 30.14V37H131.024V30.32C131.024 29.32 130.784 28.56 130.304 28.04C129.824 27.52 129.184 27.26 128.384 27.26C127.664 27.26 127.044 27.42 126.524 27.74C126.004 28.06 125.604 28.5 125.324 29.06C125.044 29.62 124.904 30.28 124.904 31.04V37H121.984H121.884ZM144.072 37.24C142.912 37.24 141.872 36.98 140.952 36.46C140.032 35.94 139.312 35.22 138.772 34.3C138.232 33.38 137.972 32.32 137.972 31.12C137.972 29.92 138.232 28.86 138.772 27.94C139.312 27.02 140.032 26.3 140.932 25.78C141.832 25.26 142.852 25 143.992 25C144.892 25 145.712 25.16 146.432 25.48C147.152 25.8 147.752 26.22 148.232 26.76C148.712 27.3 149.012 27.88 149.132 28.52H146.272C146.112 28.04 145.832 27.66 145.392 27.38C144.952 27.1 144.432 26.96 143.832 26.96C142.952 26.96 142.232 27.28 141.672 27.92C141.112 28.56 140.832 29.48 140.832 30.68C140.832 31.88 141.112 32.8 141.672 33.44C142.232 34.08 142.952 34.4 143.832 34.4C144.412 34.4 144.912 34.28 145.352 34.04C145.792 33.8 146.072 33.44 146.232 32.96H149.092C148.972 33.6 148.692 34.18 148.232 34.7C147.772 35.22 147.172 35.64 146.432 35.96C145.692 36.28 144.892 36.44 143.992 36.44L144.072 37.24ZM152.32 31.12C152.32 29.92 152.6 28.86 153.16 27.94C153.72 27.02 154.5 26.3 155.5 25.78C156.5 25.26 157.64 25 158.92 25C160.48 25 161.78 25.36 162.82 26.08C163.86 26.8 164.58 27.82 164.98 29.14H161.94C161.74 28.56 161.4 28.12 160.9 27.8C160.4 27.48 159.78 27.32 159.04 27.32C158.02 27.32 157.2 27.66 156.58 28.34C155.96 29.02 155.64 29.96 155.64 31.16C155.64 32.36 155.96 33.3 156.58 33.98C157.2 34.66 158.02 35 159.04 35C159.78 35 160.4 34.84 160.9 34.52C161.4 34.2 161.74 33.76 161.94 33.18H164.98C164.58 34.48 163.86 35.5 162.82 36.22C161.78 36.94 160.48 37.3 158.92 37.3C157.64 37.3 156.5 37.04 155.5 36.52C154.5 36 153.72 35.26 153.16 34.3C152.6 33.34 152.32 32.3 152.32 31.12Z" fill="#A78BFA"/>
</svg>
