
<svg width="200" height="60" viewBox="0 0 200 60" fill="none" xmlns="http://www.w3.org/2000/svg">
  <rect width="200" height="60" rx="4" fill="#F3F4F6"/>
  <path d="M47 37V24.2H49.92V37H47ZM59.6675 37.24C58.4675 37.24 57.3875 36.98 56.4275 36.46C55.4675 35.94 54.7075 35.22 54.1475 34.3C53.5875 33.38 53.3075 32.32 53.3075 31.12C53.3075 29.92 53.5875 28.86 54.1475 27.94C54.7075 27.02 55.4675 26.3 56.4275 25.78C57.3875 25.26 58.4675 25 59.6675 25C60.8675 25 61.9475 25.26 62.9075 25.78C63.8675 26.3 64.6275 27.02 65.1875 27.94C65.7475 28.86 66.0275 29.92 66.0275 31.12C66.0275 32.32 65.7475 33.38 65.1875 34.3C64.6275 35.22 63.8675 35.94 62.9075 36.46C61.9475 36.98 60.8675 37.24 59.6675 37.24ZM59.6675 34.74C60.6875 34.74 61.5275 34.4 62.1875 33.72C62.8475 33.04 63.1875 32.18 63.1875 31.12C63.1875 30.06 62.8475 29.2 62.1875 28.52C61.5275 27.84 60.6875 27.5 59.6675 27.5C58.6475 27.5 57.8075 27.84 57.1475 28.52C56.4875 29.2 56.1675 30.06 56.1675 31.12C56.1675 32.18 56.4875 33.04 57.1475 33.72C57.8075 34.4 58.6675 34.74 59.6675 34.74ZM71.0975 37V25.24H73.8375L74.0175 26.82C74.3975 26.3 74.8975 25.88 75.5175 25.58C76.1375 25.28 76.8175 25.12 77.5575 25.12C77.7575 25.12 77.9775 25.14 78.2175 25.18C78.4575 25.22 78.6375 25.26 78.7575 25.3L78.4375 28.12H77.0575C76.2775 28.12 75.6575 28.3 75.1975 28.66C74.7375 29.02 74.4175 29.48 74.2375 30.04C74.0575 30.6 73.9675 31.18 73.9675 31.78V37H71.0475H71.0975ZM87.4175 37.24C86.2175 37.24 85.1375 36.98 84.1775 36.46C83.2175 35.94 82.4575 35.22 81.8975 34.3C81.3375 33.38 81.0575 32.32 81.0575 31.12C81.0575 29.92 81.3375 28.86 81.8975 27.94C82.4575 27.02 83.2175 26.3 84.1775 25.78C85.1375 25.26 86.2175 25 87.4175 25C88.6175 25 89.6975 25.26 90.6575 25.78C91.6175 26.3 92.3775 27.02 92.9375 27.94C93.4975 28.86 93.7775 29.92 93.7775 31.12C93.7775 32.32 93.4975 33.38 92.9375 34.3C92.3775 35.22 91.6175 35.94 90.6575 36.46C89.6975 36.98 88.6175 37.24 87.4175 37.24ZM87.4175 34.74C88.4375 34.74 89.2775 34.4 89.9375 33.72C90.5975 33.04 90.9375 32.18 90.9375 31.12C90.9375 30.06 90.5975 29.2 89.9375 28.52C89.2775 27.84 88.4375 27.5 87.4175 27.5C86.3975 27.5 85.5575 27.84 84.8975 28.52C84.2375 29.2 83.9175 30.06 83.9175 31.12C83.9175 32.18 84.2375 33.04 84.8975 33.72C85.5575 34.4 86.4175 34.74 87.4175 34.74ZM96.0475 37V25.24H99.6275L99.7075 27.02C100.147 26.42 100.707 25.94 101.387 25.58C102.067 25.22 102.867 25.04 103.787 25.04C105.147 25.04 106.207 25.48 106.967 26.36C107.727 27.24 108.107 28.5 108.107 30.14V37H105.187V30.32C105.187 29.32 104.947 28.56 104.467 28.04C103.987 27.52 103.347 27.26 102.547 27.26C101.827 27.26 101.207 27.42 100.687 27.74C100.167 28.06 99.7675 28.5 99.4875 29.06C99.2075 29.62 99.0675 30.28 99.0675 31.04V37H96.1475H96.0475ZM118.235 37.24C117.075 37.24 116.035 36.98 115.115 36.46C114.195 35.94 113.475 35.22 112.935 34.3C112.395 33.38 112.135 32.32 112.135 31.12C112.135 29.92 112.395 28.86 112.935 27.94C113.475 27.02 114.195 26.3 115.095 25.78C115.995 25.26 117.015 25 118.155 25C119.055 25 119.875 25.16 120.595 25.48C121.315 25.8 121.915 26.22 122.395 26.76C122.875 27.3 123.175 27.88 123.295 28.52H120.435C120.275 28.04 119.995 27.66 119.555 27.38C119.115 27.1 118.595 26.96 117.995 26.96C117.115 26.96 116.395 27.28 115.835 27.92C115.275 28.56 114.995 29.48 114.995 30.68C114.995 31.88 115.275 32.8 115.835 33.44C116.395 34.08 117.115 34.4 117.995 34.4C118.575 34.4 119.075 34.28 119.515 34.04C119.955 33.8 120.235 33.44 120.395 32.96H123.255C123.135 33.6 122.855 34.18 122.395 34.7C121.935 35.22 121.335 35.64 120.595 35.96C119.855 36.28 119.055 36.44 118.155 36.44L118.235 37.24ZM130.243 37.24C129.403 37.24 128.683 37.1 128.083 36.82C127.483 36.54 127.023 36.14 126.703 35.62C126.383 35.1 126.223 34.48 126.223 33.76C126.223 32.94 126.423 32.28 126.823 31.78C127.223 31.28 127.823 30.9 128.623 30.64C129.423 30.38 130.443 30.26 131.683 30.26H134.123V29.94C134.123 29.24 133.943 28.72 133.583 28.38C133.223 28.04 132.683 27.86 131.963 27.86C131.323 27.86 130.783 28 130.343 28.28C129.903 28.56 129.643 28.96 129.563 29.48H126.683C126.743 28.56 127.023 27.78 127.523 27.14C128.023 26.5 128.663 26.02 129.443 25.7C130.223 25.38 131.083 25.22 132.023 25.22C133.663 25.22 134.983 25.64 135.983 26.48C136.983 27.32 137.483 28.5 137.483 30.04V37H134.743L134.443 35.4C134.123 35.92 133.663 36.34 133.063 36.66C132.463 36.98 131.763 37.14 130.963 37.14L130.243 37.24ZM131.343 34.58C132.203 34.58 132.883 34.32 133.383 33.8C133.883 33.28 134.163 32.64 134.223 31.88H132.143C131.343 31.88 130.783 32 130.463 32.24C130.143 32.48 129.983 32.8 129.983 33.2C129.983 33.6 130.143 33.92 130.463 34.14C130.783 34.36 131.203 34.48 131.723 34.48L131.343 34.58ZM149.01 37.24C147.81 37.24 146.73 36.98 145.77 36.46C144.81 35.94 144.05 35.22 143.49 34.3C142.93 33.38 142.65 32.32 142.65 31.12C142.65 29.92 142.93 28.86 143.49 27.94C144.05 27.02 144.81 26.3 145.77 25.78C146.73 25.26 147.81 25 149.01 25C150.21 25 151.29 25.26 152.25 25.78C153.21 26.3 153.97 27.02 154.53 27.94C155.09 28.86 155.37 29.92 155.37 31.12C155.37 32.32 155.09 33.38 154.53 34.3C153.97 35.22 153.21 35.94 152.25 36.46C151.29 36.98 150.21 37.24 149.01 37.24ZM149.01 34.74C150.03 34.74 150.87 34.4 151.53 33.72C152.19 33.04 152.53 32.18 152.53 31.12C152.53 30.06 152.19 29.2 151.53 28.52C150.87 27.84 150.03 27.5 149.01 27.5C147.99 27.5 147.15 27.84 146.49 28.52C145.83 29.2 145.51 30.06 145.51 31.12C145.51 32.18 145.83 33.04 146.49 33.72C147.15 34.4 148.01 34.74 149.01 34.74Z" fill="#C4B5FD"/>
</svg>
